<svg width="127" height="127" viewBox="0 0 127 127" fill="none" xmlns="http://www.w3.org/2000/svg">
<g clip-path="url(#clip0_38_1128)">
<rect width="127" height="127" rx="23" fill="#7B69B1"/>
<path fill-rule="evenodd" clip-rule="evenodd" d="M73 46H55V37C55 27.0589 46.9411 19 37 19C27.0589 19 19 27.0589 19 37C19 46.9411 27.0589 55 37 55H46V73H37C27.0589 73 19 81.0589 19 91C19 100.941 27.0589 109 37 109C46.9411 109 55 100.941 55 91V82H73V91C73 100.941 81.0589 109 91 109C100.941 109 109 100.941 109 91C109 81.0589 100.941 73 91 73H82V55H91C100.941 55 109 46.9411 109 37C109 27.0589 100.941 19 91 19C81.0589 19 73 27.0589 73 37V46ZM73 55V73H55V55H73ZM46 82V91C46 95.9706 41.9706 100 37 100C32.0294 100 28 95.9706 28 91C28 86.0294 32.0294 82 37 82H46ZM82 82H91C95.9706 82 100 86.0294 100 91C100 95.9706 95.9706 100 91 100C86.0294 100 82 95.9706 82 91V82ZM46 46H37C32.0294 46 28 41.9706 28 37C28 32.0294 32.0294 28 37 28C41.9706 28 46 32.0294 46 37V46ZM82 46V37C82 32.0294 86.0294 28 91 28C95.9706 28 100 32.0294 100 37C100 41.9706 95.9706 46 91 46H82Z" fill="#483978"/>
</g>
<defs>
<clipPath id="clip0_38_1128">
<rect width="127" height="127" fill="white"/>
</clipPath>
</defs>
</svg>
